# xmcd
#
# Track frame offsets:
#	150
#	22042
#	35287
#	49847
#	69830
#	86690
#	102627
#	115682
#	128912
#	150105
#	166575
#
# Disc length: 2624 seconds
#
# Revision: 0
# Processed by: cddbd v1.5.2PL0 Copyright (c) Steve Scherf et al.
# Submitted via: audiograbber 1.83.01
#
DISCID=7d0a3e0b
DTITLE=Poco - The Best Of  
DYEAR=1900
DGENRE=Oldies
TTITLE0=Heart Of The Night
TTITLE1=Crazy Love
TTITLE2=Under The Gun
TTITLE3=Midnight Rain
TTITLE4=Little Darlin'
TTITLE5=Barbados
TTITLE6=Keep On Tryin'
TTITLE7=Makin' Love
TTITLE8=Indian Summer
TTITLE9=Widowmaker
TTITLE10=Rose Of Cimarron
EXTD=
EXTT0=
EXTT1=
EXTT2=
EXTT3=
EXTT4=
EXTT5=
EXTT6=
EXTT7=
EXTT8=
EXTT9=
EXTT10=
PLAYORDER=
